<?xml version="1.0" encoding="UTF-8"?>
<!-- Generated by Pixelmator Pro 3.6 -->
<svg width="400" height="400" viewBox="0 0 400 400" xmlns="http://www.w3.org/2000/svg">
    <g id="banknotefill">
        <path id="Path" fill="#305c9d" stroke="none"
            d="M 56.679928 271.322266 C 56.679928 273.534241 57.924252 274.640533 59.998131 274.640533 L 168.115356 274.640533 C 153.46022 259.708313 144.888153 233.301071 144.888153 199.842651 C 144.888153 166.523117 153.46022 140.253937 167.838959 125.460358 L 59.998131 125.460358 C 57.924252 125.460358 56.679928 126.566376 56.679928 128.778534 Z M 161.479492 199.842651 C 161.479492 242.979462 176.411026 271.875122 198.947189 271.875122 C 222.174408 271.875122 237.797623 242.979462 237.797623 199.842651 C 237.797623 156.706512 222.174408 127.949005 198.947189 127.949005 C 176.411026 127.949005 161.479492 156.706512 161.479492 199.842651 Z M 230.608276 274.640533 L 339.002075 274.640533 C 341.075836 274.640533 342.320343 273.534241 342.320343 271.322266 L 342.320343 128.778534 C 342.320343 126.566376 341.075836 125.460358 339.002075 125.460358 L 230.74646 125.460358 C 245.53978 140.253937 254.250061 166.523117 254.250061 199.842651 C 254.250061 233.301071 245.401581 259.708313 230.608276 274.640533 Z" />
        <path id="path1" fill="#305c9d" stroke="none"
            d="M 17 303.259766 C 17 309.896271 21.424244 314.32019 28.060577 314.32019 L 371.077789 314.32019 C 377.714325 314.32019 382 309.896271 382 303.259766 L 382 96.702759 C 382 90.066376 377.714325 85.780426 371.077789 85.780426 L 28.060577 85.780426 C 21.424244 85.780426 17 90.066376 17 96.702759 Z M 42.301151 280.585388 L 42.301151 119.515289 C 42.301151 113.984924 45.481079 111.081512 50.596619 111.081512 L 348.403381 111.081512 C 353.657196 111.081512 356.699036 113.984924 356.699036 119.515289 L 356.699036 280.585388 C 356.699036 285.977386 353.657196 289.019257 348.403381 289.019257 L 50.596619 289.019257 C 45.481079 289.019257 42.301151 285.977386 42.301151 280.585388 Z" />
    </g>
</svg>