<?xml version="1.0" encoding="UTF-8"?>
<!-- Generated by Pixelmator Pro 3.6 -->
<svg width="1050" height="440" viewBox="0 0 1050 440" xmlns="http://www.w3.org/2000/svg">
    <g id="Group">
        <path id="Path" fill="none" stroke="#305c9d" stroke-width="3" d="M 614.609375 386.296875 L 598 394.0625 L 580.296875 400.28125 L 562.09375 404.734375 L 543.15625 407.375 L 526.09375 408.125 L 509.046875 407.375 L 490.109375 404.734375 L 471.890625 400.28125 L 454.203125 394.0625 L 437.578125 386.296875 L 421.78125 376.96875 L 406.9375 366.140625 L 393.296875 354.03125 L 383.921875 344.203125 L 378.0625 337.265625 L 367.21875 322.375 L 357.890625 306.59375 L 350.125 289.96875 L 343.90625 272.3125 L 339.46875 254.09375 L 336.828125 235.15625 L 336.0625 218.171875 L 336.828125 201 L 339.484375 182.046875 L 343.90625 163.90625 L 350.140625 146.203125 L 357.890625 129.609375 L 367.21875 113.828125 L 378.0625 98.9375 L 383.921875 92 L 393.296875 82.1875 L 406.9375 70.078125 L 421.8125 59.21875 L 437.578125 49.90625 L 454.203125 42.15625 L 471.890625 35.921875 L 490.109375 31.46875 L 509.046875 28.828125 L 526.09375 28.078125 L 543.15625 28.828125 L 562.09375 31.46875 L 580.296875 35.921875 L 598 42.15625 L 614.609375 49.90625 L 630.375 59.21875 L 645.25 70.078125 L 652.203125 75.9375 L 662.015625 85.3125 L 674.125 98.9375 L 684.984375 113.828125 L 694.3125 129.609375 L 702.046875 146.203125 L 708.28125 163.90625 L 712.71875 182.046875 L 715.375 201 L 716.125 218.046875 L 715.375 235.15625 L 712.734375 254.09375 L 708.28125 272.3125 L 702.0625 289.96875 L 694.3125 306.59375 L 684.984375 322.375 L 674.1875 337.1875 L 662.015625 350.90625 L 652.203125 360.28125 L 645.25 366.140625 L 630.40625 376.96875 Z"/>
    </g>
    <g id="g1">
        <path id="eN8HYslCIaj5" fill="none" stroke="#8193c3" stroke-width="2.245155" stroke-linecap="round" stroke-linejoin="round" stroke-dasharray="34.83 34.83" stroke-dashoffset="0" d="M 440.521698 60.757935 L 440.521698 86.821838"/>
        <path id="eN8HYslCIaj6" fill="none" stroke="#8193c3" stroke-width="2.245155" stroke-linecap="round" stroke-linejoin="round" stroke-dasharray="34.83 34.83" stroke-dashoffset="0" d="M 414.510742 86.825806 L 440.574677 86.825806"/>
        <path id="eN8HYslCIaj7" fill="none" stroke="#8193c3" stroke-width="2.245155" stroke-linecap="round" stroke-linejoin="round" stroke-dasharray="34.83 34.83" stroke-dashoffset="0" d="M 466.604034 86.825806 L 440.5401 86.825806"/>
        <path id="eN8HYslCIaj8" fill="none" stroke="#8193c3" stroke-width="2.245155" stroke-linecap="round" stroke-linejoin="round" stroke-dasharray="34.83 34.83" stroke-dashoffset="0" d="M 440.547913 112.8703 L 440.547913 86.806396"/>
        <g id="g2">
            <path id="eN8HYslCIaj10" fill="none" stroke="#8193c3" stroke-width="2.245154" stroke-linecap="round" stroke-linejoin="round" stroke-dasharray="34.83 34.83" stroke-dashoffset="0" d="M 450.862518 97.670532 L 440.51947 86.85144"/>
            <path id="eN8HYslCIaj11" fill="none" stroke="#8193c3" stroke-width="2.245154" stroke-linecap="round" stroke-linejoin="round" stroke-dasharray="34.83 34.83" stroke-dashoffset="0" d="M 430.21347 75.960754 L 440.556519 86.779846"/>
            <path id="eN8HYslCIaj12" fill="none" stroke="#8193c3" stroke-width="2.245154" stroke-linecap="round" stroke-linejoin="round" stroke-dasharray="34.83 34.83" stroke-dashoffset="0" d="M 429.699127 97.185608 L 440.51825 86.84259"/>
            <path id="eN8HYslCIaj13" fill="none" stroke="#8193c3" stroke-width="2.245154" stroke-linecap="round" stroke-linejoin="round" stroke-dasharray="34.83 34.83" stroke-dashoffset="0" d="M 451.364624 76.438538 L 440.545502 86.781555"/>
        </g>
    </g>
    <g id="g3">
        <path id="eN8HYslCIaj15" fill="none" stroke="#8193c3" stroke-width="1.963639" stroke-linecap="round" stroke-linejoin="round" stroke-dasharray="34.83 34.83" stroke-dashoffset="0" d="M 664.829895 121.177979 L 664.807312 98.382141"/>
        <path id="eN8HYslCIaj16" fill="none" stroke="#8193c3" stroke-width="1.963639" stroke-linecap="round" stroke-linejoin="round" stroke-dasharray="34.83 34.83" stroke-dashoffset="0" d="M 687.556763 98.35614 L 664.760925 98.378784"/>
        <path id="eN8HYslCIaj17" fill="none" stroke="#8193c3" stroke-width="1.963639" stroke-linecap="round" stroke-linejoin="round" stroke-dasharray="34.83 34.83" stroke-dashoffset="0" d="M 641.995361 98.401306 L 664.791199 98.378723"/>
        <path id="eN8HYslCIaj18" fill="none" stroke="#8193c3" stroke-width="1.963639" stroke-linecap="round" stroke-linejoin="round" stroke-dasharray="34.83 34.83" stroke-dashoffset="0" d="M 664.76178 75.599915 L 664.784363 98.395691"/>
        <g id="g4">
            <path id="eN8HYslCIaj20" fill="none" stroke="#8193c3" stroke-width="1.963638" stroke-linecap="round" stroke-linejoin="round" stroke-dasharray="34.83 34.83" stroke-dashoffset="0" d="M 655.753662 88.90271 L 664.809204 98.356262"/>
            <path id="eN8HYslCIaj21" fill="none" stroke="#8193c3" stroke-width="1.963638" stroke-linecap="round" stroke-linejoin="round" stroke-dasharray="34.83 34.83" stroke-dashoffset="0" d="M 673.832397 107.872498 L 664.776917 98.418945"/>
            <path id="eN8HYslCIaj22" fill="none" stroke="#8193c3" stroke-width="1.963638" stroke-linecap="round" stroke-linejoin="round" stroke-dasharray="34.83 34.83" stroke-dashoffset="0" d="M 674.263855 89.308472 L 664.810303 98.364014"/>
            <path id="eN8HYslCIaj23" fill="none" stroke="#8193c3" stroke-width="1.963638" stroke-linecap="round" stroke-linejoin="round" stroke-dasharray="34.83 34.83" stroke-dashoffset="0" d="M 655.332947 107.4729 L 664.786499 98.417419"/>
        </g>
    </g>
    <g id="g5">
        <path id="eN8HYslCIaj25" fill="none" stroke="#a5b7e8" stroke-width="1.68393" stroke-linecap="round" stroke-linejoin="round" stroke-dasharray="34.83 34.83" stroke-dashoffset="0" d="M 622.908936 359.058136 L 622.908936 378.606842"/>
        <path id="eN8HYslCIaj26" fill="none" stroke="#a5b7e8" stroke-width="1.68393" stroke-linecap="round" stroke-linejoin="round" stroke-dasharray="34.83 34.83" stroke-dashoffset="0" d="M 603.399963 378.609772 L 622.948669 378.609772"/>
        <path id="eN8HYslCIaj27" fill="none" stroke="#a5b7e8" stroke-width="1.68393" stroke-linecap="round" stroke-linejoin="round" stroke-dasharray="34.83 34.83" stroke-dashoffset="0" d="M 642.471436 378.609772 L 622.922729 378.609772"/>
        <path id="eN8HYslCIaj28" fill="none" stroke="#a5b7e8" stroke-width="1.68393" stroke-linecap="round" stroke-linejoin="round" stroke-dasharray="34.83 34.83" stroke-dashoffset="0" d="M 622.928589 398.143921 L 622.928589 378.595215"/>
        <g id="g6">
            <path id="eN8HYslCIaj30" fill="none" stroke="#a5b7e8" stroke-width="1.683929" stroke-linecap="round" stroke-linejoin="round" stroke-dasharray="34.83 34.83" stroke-dashoffset="0" d="M 630.664856 386.743652 L 622.907288 378.628998"/>
            <path id="eN8HYslCIaj31" fill="none" stroke="#a5b7e8" stroke-width="1.683929" stroke-linecap="round" stroke-linejoin="round" stroke-dasharray="34.83 34.83" stroke-dashoffset="0" d="M 615.17749 370.460663 L 622.935059 378.575317"/>
            <path id="eN8HYslCIaj32" fill="none" stroke="#a5b7e8" stroke-width="1.683929" stroke-linecap="round" stroke-linejoin="round" stroke-dasharray="34.83 34.83" stroke-dashoffset="0" d="M 614.791687 386.379944 L 622.906372 378.622375"/>
            <path id="eN8HYslCIaj33" fill="none" stroke="#a5b7e8" stroke-width="1.683929" stroke-linecap="round" stroke-linejoin="round" stroke-dasharray="34.83 34.83" stroke-dashoffset="0" d="M 631.041443 370.819031 L 622.926819 378.576599"/>
        </g>
    </g>
    <g id="eN8HYslCIaj34">
        <path id="eN8HYslCIaj35" fill="#1c2435" stroke="none" d="M 584.642395 343.931519 C 584.642395 343.931519 552.408752 384.54837 481.716736 377.558105 C 417.062042 370.253174 373.018585 328.76239 366.794586 289.584442 C 364.623627 275.753235 374.046326 262.873474 383.676056 260.168457 C 393.305786 257.46344 409.003174 264.213013 413.783508 281.042572 C 418.563873 297.87204 419.421753 327.63858 443.53537 346.194763 C 463.721191 362.105835 530.852112 380.130219 583.015198 338.813965 C 584.502808 340.817108 584.086975 341.499054 584.642395 343.931519 Z"/>
        <linearGradient id="linearGradient1" x1="492.924189" y1="212.653422" x2="492.924189" y2="266.989863" gradientUnits="userSpaceOnUse">
            <stop offset="0.01" stop-color="#0a1924" stop-opacity="1"/>
            <stop offset="0.41" stop-color="#131f2d" stop-opacity="1"/>
            <stop offset="1" stop-color="#1c2435" stop-opacity="1"/>
        </linearGradient>
        <path id="eN8HYslCIaj36" fill="none" stroke="url(#linearGradient1)" stroke-width="19.746738" stroke-linecap="round" stroke-linejoin="round" d="M 524.310486 221.100586 C 524.310486 221.100586 494.245453 224.372498 480.818909 237.127747 C 476.567169 240.931946 471.420288 252.344543 484.959686 258.553589"/>
        <linearGradient id="linearGradient2" x1="564.13312" y1="203.599448" x2="663.283686" y2="203.599448" gradientUnits="userSpaceOnUse">
            <stop offset="0.01" stop-color="#0a1924" stop-opacity="1"/>
            <stop offset="0.41" stop-color="#131f2d" stop-opacity="1"/>
            <stop offset="1" stop-color="#1c2435" stop-opacity="1"/>
        </linearGradient>
        <path id="eN8HYslCIaj37" fill="none" stroke="url(#linearGradient2)" stroke-width="19.746738" stroke-linecap="round" stroke-linejoin="round" d="M 572.580322 217.42218 C 572.580322 217.42218 631.096497 167.265442 654.858398 202.063599"/>
        <path id="eN8HYslCIaj38" fill="#151e2c" stroke="none" d="M 536.926453 250.654907 C 536.926453 250.654907 499.00177 245.849854 477.313324 272.595703 C 471.597687 279.978851 459.906586 300.02536 478.099579 321.272614 C 473.491974 322.216064 468.367859 316.359772 464.318024 309.91687 C 456.598663 295.513397 445.733124 294.919739 439.142578 300.533905 C 432.407471 305.197052 432.159088 323.015747 449.459412 333.733856 C 466.759735 344.451904 503.949432 358.614746 553.678345 326.976044 C 578.526306 308.523804 585.05365 296.70871 584.329651 278.585571 C 583.430054 266.671753 573.501831 254.143494 536.926453 250.654907 Z"/>
        <path id="eN8HYslCIaj39" fill="#1c2435" stroke="none" d="M 532.059326 211.666077 C 532.059326 211.666077 527.934448 234.265076 502.099121 254.889526 C 474.475616 276.929047 475.60556 314.623352 497.952271 339.78949 C 508.56073 353.030762 554.362183 378.800262 587.745117 342.43338 C 614.907837 311.782043 616.268188 271.356079 582.040466 203.701538 C 564.290405 207.683838 555.360474 210.338623 532.059326 211.666077 Z"/>
        <path id="eN8HYslCIaj40" fill="#555b73" stroke="none" d="M 577.198853 208.605347 C 577.198853 208.605347 583.287415 228.352112 575.937256 241.922485 C 567.446167 257.632141 545.099426 258.520752 522.730774 272.957764 C 508.99585 281.075897 505.035461 292.408264 498.760437 307.108643 C 499.238312 325.217804 495.779877 342.97113 483.098969 319.223175 C 465.345612 266.424377 510.016113 248.307251 517.333313 239.135986 C 530.761108 221.704041 531.177979 211.96228 531.177979 211.96228 Z"/>
        <clipPath id="clipPath1">
            <path d="M 577.175598 208.712219 C 577.175598 208.712219 583.26416 228.458984 575.914001 242.029358 C 567.422913 257.75 545.076172 258.638611 522.696533 273.075623 C 508.961609 281.193756 505.001282 292.515228 498.682343 307.248474 C 494.162506 318.833221 475.249512 312.733673 481.645264 284.100861 C 486.965912 262.050354 509.731689 249.273437 517.037964 240.102173 C 530.465698 222.615356 531.099854 212.003357 531.099854 212.003357 Z"/>
        </clipPath>
        <g id="eN8HYslCIaj41" clip-path="url(#clipPath1)">
            <g id="g7">
                <path id="eN8HYslCIaj43" fill="#3b404e" stroke="none" d="M 519.569946 214.235718 L 584.558655 209.474548 C 584.400391 215.719421 579.073486 226.522522 541.982483 228.233948 C 515.115967 229.352905 518.802002 218.56897 519.569946 214.235718 Z"/>
            </g>
        </g>
        <g id="eN8HYslCIaj46">
            <path id="eN8HYslCIaj47" fill="#1c2435" stroke="none" d="M 546.030334 269.200073 C 546.030334 269.200073 519.744568 263.17334 497.66156 282.244812 C 493.130737 286.797516 472.772827 302.556274 488.657837 335.626526 C 486.298828 333.281738 484.117035 331.276062 480.111664 327.45282 C 472.125214 320.574371 460.002991 311.69754 449.186279 319.796234 C 443.185455 325.698334 439.159332 337.919373 459.860504 351.336182 C 475.537201 361.483795 533.848022 385.312378 573.912231 353.657288 C 594.052246 337.349091 596.908691 312.899963 589.446533 296.904816 C 585.769104 287.251678 575.900696 271.817749 546.030334 269.200073 Z"/>
            <path id="eN8HYslCIaj48" fill="none" stroke="#14192e" stroke-width="1.088403" stroke-linecap="round" d="M 558.176147 270.90979 C 558.176147 270.90979 553.397522 269.64563 546.072144 268.941772 C 532.210327 267.609863 513.268127 268.88623 496.293396 283.930145 C 490.282593 288.914429 473.292969 308.100128 488.744446 335.119598"/>
        </g>
        <linearGradient id="linearGradient3" x1="417.71828" y1="262.241369" x2="486.395368" y2="267.184683" gradientUnits="userSpaceOnUse">
            <stop offset="1e-05" stop-color="#6a7281" stop-opacity="1"/>
            <stop offset="1" stop-color="#0b3e3b" stop-opacity="1"/>
        </linearGradient>
        <path id="eN8HYslCIaj49" fill="none" stroke="url(#linearGradient3)" stroke-width="2.194082" stroke-linecap="round" d="M 383.111603 326.729858 C 383.111603 326.729858 366.250458 339.35733 384.801422 329.264526 C 444.348816 293.062195 406.916168 235.274414 430.743896 213.267761 C 445.696594 199.455994 478.388397 207.310852 490.038971 210.481262"/>
        <linearGradient id="linearGradient4" x1="623.146332" y1="171.810542" x2="664.622438" y2="139.944386" gradientUnits="userSpaceOnUse">
            <stop offset="1e-05" stop-color="#0b3e3b" stop-opacity="1"/>
            <stop offset="0.42759" stop-color="#64a6a1" stop-opacity="1"/>
            <stop offset="1" stop-color="#6a7281" stop-opacity="1"/>
        </linearGradient>
        <path id="eN8HYslCIaj50" fill="none" stroke="url(#linearGradient4)" stroke-width="2.194082" stroke-linecap="round" d="M 611.069397 170.132019 C 611.069397 170.132019 642.938416 162.156555 654.950989 114.073242 C 663.727356 77.015198 639.372986 75.490295 635.566223 101.907043 C 635.127441 104.945862 631.759521 130.079102 648.116394 152.645203 C 665.592224 176.78009 678.266663 148.023743 675.929993 144.282837"/>
        <g id="eN8HYslCIaj51">
            <g id="eN8HYslCIaj52">
                <g id="eN8HYslCIaj53">
                    <linearGradient id="linearGradient5" x1="485.799852" y1="83.146923" x2="490.100253" y2="128.048811" gradientUnits="userSpaceOnUse">
                        <stop offset="1e-05" stop-color="#1c2435" stop-opacity="1"/>
                        <stop offset="0.62" stop-color="#191f32" stop-opacity="1"/>
                        <stop offset="1" stop-color="#14192e" stop-opacity="1"/>
                    </linearGradient>
                    <path id="path1" fill="url(#linearGradient5)" stroke="none" d="M 510.428406 112.98645 C 510.428406 112.98645 491.361847 96.015198 477.396515 86.997559 C 473.326508 84.222046 465.559448 81.611084 465.329041 91.122437 C 464.912201 99.075989 467.961975 119.963623 469.662384 137.099365 C 489.453003 126.315491 510.428406 112.98645 510.428406 112.98645 Z"/>
                    <linearGradient id="linearGradient6" x1="488.761863" y1="95.027877" x2="490.890122" y2="124.26402" gradientUnits="userSpaceOnUse">
                        <stop offset="1e-05" stop-color="#5f6680" stop-opacity="1"/>
                        <stop offset="0.32" stop-color="#5c637c" stop-opacity="1"/>
                        <stop offset="0.62" stop-color="#535970" stop-opacity="1"/>
                        <stop offset="0.93" stop-color="#44495d" stop-opacity="1"/>
                        <stop offset="1" stop-color="#3f4457" stop-opacity="1"/>
                    </linearGradient>
                    <path id="path2" fill="url(#linearGradient6)" stroke="none" d="M 504.361755 113.831177 C 504.361755 113.831177 491.976196 102.860718 482.903687 96.936707 C 480.24881 95.137573 475.224396 93.437195 475.081757 99.624512 C 474.807495 104.791565 476.782166 118.372925 477.901184 129.507874 C 490.736542 122.497742 504.361755 113.831177 504.361755 113.831177 Z"/>
                </g>
                <g id="eN8HYslCIaj56">
                    <linearGradient id="linearGradient7" x1="582.0652" y1="66.801012" x2="577.029782" y2="112.437918" gradientUnits="userSpaceOnUse">
                        <stop offset="1e-05" stop-color="#1c2435" stop-opacity="1"/>
                        <stop offset="0.62" stop-color="#191f32" stop-opacity="1"/>
                        <stop offset="1" stop-color="#14192e" stop-opacity="1"/>
                    </linearGradient>
                    <path id="path3" fill="url(#linearGradient7)" stroke="none" d="M 554.123596 106.184753 C 554.123596 106.184753 567.551331 84.485291 578.346191 71.847412 C 581.461853 68.018738 588.219604 63.301453 591.060913 72.363037 C 593.737732 79.86676 596.787476 100.754456 600.034729 117.659851 C 578.028076 112.975464 554.123596 106.184753 554.123596 106.184753 Z"/>
                    <linearGradient id="linearGradient8" x1="573.596043" y1="79.011079" x2="574.879581" y2="104.758631" gradientUnits="userSpaceOnUse">
                        <stop offset="1e-05" stop-color="#5f6680" stop-opacity="1"/>
                        <stop offset="0.32" stop-color="#5c637c" stop-opacity="1"/>
                        <stop offset="0.62" stop-color="#535970" stop-opacity="1"/>
                        <stop offset="0.93" stop-color="#44495d" stop-opacity="1"/>
                        <stop offset="1" stop-color="#3f4457" stop-opacity="1"/>
                    </linearGradient>
                    <path id="path4" fill="url(#linearGradient8)" stroke="none" d="M 560.168213 105.274231 C 560.168213 105.274231 568.94458 91.16626 575.910828 82.949463 C 577.940308 80.459167 582.295593 77.398438 584.182495 83.289551 C 585.915833 88.1604 587.901428 101.74176 590.018738 112.723145 C 575.702393 109.684326 560.168213 105.274231 560.168213 105.274231 Z"/>
                </g>
            </g>
            <path id="path5" fill="#1c2435" stroke="none" d="M 622.458252 150.549133 C 628.217712 190.042603 594.812805 214.243286 549.954773 220.759766 C 505.096802 227.276184 465.394867 211.160645 459.997467 174.223267 C 453.162872 127.34668 488.191376 109.881775 533.049438 103.332458 C 577.90741 96.783142 615.075195 100.227844 622.458252 150.549133 Z"/>
            <clipPath id="clipPath2">
                <path d="M 622.458252 150.549133 C 628.217712 190.042603 594.812805 214.243286 549.954773 220.759766 C 505.096802 227.276184 465.394867 211.160645 459.997467 174.223267 C 453.162872 127.34668 488.191376 109.881775 533.049438 103.332458 C 577.90741 96.783142 615.075195 100.227844 622.458252 150.549133 Z"/>
            </clipPath>
            <g id="g8" clip-path="url(#clipPath2)">
                <g id="g9">
                    <path id="eN8HYslCIaj62" fill="#18202d" stroke="none" d="M 458.06665 174.705994 C 458.06665 174.705994 480.786346 225.707397 551.764954 213.157227 C 589.546997 207.737854 616.852356 186.773438 623.555298 150.384583 C 625.266663 173.422424 626.407593 211.391052 551.721069 224.687195 C 507.477356 231.719177 466.053101 224.687195 458.06665 174.705994 Z"/>
                </g>
            </g>
            <g id="eN8HYslCIaj65">
                <g id="g10">
                    <path id="path6" fill="#ffffff" stroke="none" d="M 529.913818 152.756897 C 532.721924 165.258057 525.221069 177.762024 512.869751 181.169373 C 500.518433 184.576843 487.66748 177.687378 483.668701 165.514648 C 480.14444 152.687805 488.45932 141.888245 501.28476 138.353149 C 514.110229 134.817993 526.393677 139.962708 529.913818 152.756897 Z"/>
                    <g id="g11">
                        <linearGradient id="linearGradient9" x1="513.922881" y1="147.229002" x2="496.310924" y2="179.909722" gradientUnits="userSpaceOnUse">
                            <stop offset="1e-05" stop-color="#17286a" stop-opacity="1"/>
                            <stop offset="0.7" stop-color="#111c30" stop-opacity="1"/>
                            <stop offset="1" stop-color="#101a20" stop-opacity="1"/>
                        </linearGradient>
                        <path id="eN8HYslCIaj69" fill="url(#linearGradient9)" stroke="none" d="M 524.105042 160.202637 C 525.374268 170.37384 518.157776 179.648071 507.986572 180.917297 C 497.815369 182.186523 488.541107 174.970032 487.271881 164.798828 C 486.002655 154.627686 493.219147 145.353394 503.39035 144.084167 C 513.561523 142.814941 522.835815 150.031433 524.105042 160.202637 Z"/>
                        <filter id="filter1" x="0" y="0" width="1050" height="440" filterUnits="userSpaceOnUse" primitiveUnits="userSpaceOnUse" color-interpolation-filters="sRGB">
                            <feGaussianBlur stdDeviation="0"/>
                        </filter>
                        <path id="eN8HYslCIaj71" fill="#ffffff" stroke="none" filter="url(#filter1)" d="M 509.284912 150.532104 C 509.547791 152.638794 508.053101 154.559692 505.946411 154.822571 C 503.839783 155.085449 501.918884 153.590759 501.656006 151.484131 C 501.393127 149.377441 502.887817 147.456543 504.994446 147.193665 C 507.101135 146.930786 509.022034 148.425476 509.284912 150.532104 Z"/>
                    </g>
                </g>
                <g id="g12">
                    <path id="path7" fill="#ffffff" stroke="none" d="M 596.51593 142.653625 C 599.879517 155.404846 592.331299 168.482849 579.607422 171.948792 C 566.883545 175.414673 553.745422 167.97168 550.177429 155.276062 C 546.692505 142.438477 555.225159 131.365723 568.019226 127.886169 C 580.813171 124.406555 593.079895 129.854248 596.51593 142.653625 Z"/>
                    <g id="g13">
                        <linearGradient id="linearGradient10" x1="578.872163" y1="136.803129" x2="564.500168" y2="170.828016" gradientUnits="userSpaceOnUse">
                            <stop offset="1e-05" stop-color="#17286a" stop-opacity="1"/>
                            <stop offset="0.7" stop-color="#111c30" stop-opacity="1"/>
                            <stop offset="1" stop-color="#101a20" stop-opacity="1"/>
                        </linearGradient>
                        <path id="eN8HYslCIaj75" fill="url(#linearGradient10)" stroke="none" d="M 590.648499 150.090393 C 591.880493 160.215942 584.670837 169.423035 574.545288 170.655029 C 564.4198 171.887024 555.212708 164.677368 553.980713 154.551819 C 552.748718 144.42627 559.958374 135.219177 570.083923 133.987183 C 580.209473 132.755249 589.416565 139.964905 590.648499 150.090393 Z"/>
                        <path id="eN8HYslCIaj77" fill="#ffffff" stroke="none" d="M 578.475769 139.923401 C 578.736328 142.064514 577.211731 144.011475 575.070618 144.271973 C 572.929504 144.532471 570.982544 143.007935 570.722046 140.866821 C 570.461548 138.725647 571.986084 136.778748 574.127197 136.51825 C 576.268372 136.25769 578.215271 137.782288 578.475769 139.923401 Z"/>
                    </g>
                </g>
            </g>
            <g id="eN8HYslCIaj86">
                <path id="eN8HYslCIaj87" fill="none" stroke="#101526" stroke-width="2.27116" stroke-linecap="round" d="M 538.282288 190.997009 C 538.282288 190.997009 544.436707 183.416443 554.551392 188.451904"/>
                <path id="path8" fill="#101526" stroke="none" d="M 534.958252 168.639282 C 534.454712 168.108643 534.201477 167.388245 534.262268 166.659241 C 534.322998 165.930176 534.691956 165.261658 535.276428 164.821655 C 539.335571 162.087036 544.418457 161.348267 549.088135 162.814026 C 549.741455 163.086609 550.253296 163.616821 550.502502 164.279419 C 550.751709 164.941956 550.716309 165.67804 550.404602 166.313599 C 548.967468 169.319519 546.411377 174.091614 543.570068 174.442688 C 541.277222 174.684021 539.258606 173.345642 534.958252 168.639282 Z"/>
                <path id="eN8HYslCIaj89" fill="none" stroke="#101526" stroke-width="2.475276" stroke-linecap="round" stroke-linejoin="round" d="M 543.22998 171.305176 L 545.478882 186.740479"/>
            </g>
            <g id="eN8HYslCIaj90">
                <g id="g14">
                    <path id="path9" fill="none" stroke="#101526" stroke-width="2.475276" stroke-linecap="round" d="M 612.244812 166.708557 L 633.53833 172.468018"/>
                    <path id="path10" fill="none" stroke="#101526" stroke-width="2.475276" stroke-linecap="round" d="M 629.347717 143.703613 L 610.577271 155.310242"/>
                    <path id="path11" fill="none" stroke="#101526" stroke-width="2.475276" stroke-linecap="round" d="M 610.665039 161.091675 L 632.474243 157.734741"/>
                </g>
                <g id="g15">
                    <path id="path12" fill="none" stroke="#101526" stroke-width="2.475276" stroke-linecap="round" d="M 452.877655 169.451172 L 474.18219 175.210632"/>
                    <path id="path13" fill="none" stroke="#101526" stroke-width="2.475276" stroke-linecap="round" d="M 475.73999 180.772644 L 453.886932 183.78949"/>
                    <path id="path14" fill="none" stroke="#101526" stroke-width="2.475276" stroke-linecap="round" d="M 475.838715 186.5979 L 457.079315 198.20459"/>
                </g>
            </g>
        </g>
        <g id="eN8HYslCIaj99">
            <clipPath id="clipPath3">
                <path d="M 527.75061 247.034668 C 527.75061 256.692383 520.267395 264.521484 511.036438 264.521484 C 501.80545 264.521484 494.322266 256.692383 494.322266 247.034668 C 494.322266 237.376953 501.80545 229.547791 511.036438 229.547791 C 520.267395 229.547791 527.75061 237.376953 527.75061 247.034668 Z"/>
            </clipPath>
            <g id="g16" clip-path="url(#clipPath3)">
                <g id="g17">
                    <path id="path15" fill="#d5b027" stroke="#d5a127" stroke-width="4.126626" d="M 527.960327 247.067566 C 527.960327 256.725281 520.477112 264.554382 511.246155 264.554382 C 502.015167 264.554382 494.531982 256.725281 494.531982 247.067566 C 494.531982 237.409851 502.015167 229.58075 511.246155 229.58075 C 520.477112 229.58075 527.960327 237.409851 527.960327 247.067566 Z"/>
                    <path id="path16" fill="none" stroke="#d5a127" stroke-width="2.063313" d="M 508.278687 227.101379 C 508.278687 227.101379 503.916626 249.459106 526.261658 263.150146"/>
                    <path id="path17" fill="none" stroke="#d5a127" stroke-width="2.063313" d="M 504.451416 228.582458 C 504.451416 228.582458 500.089386 250.940063 522.434326 264.620239"/>
                    <path id="path18" fill="none" stroke="#d5a127" stroke-width="2.063313" d="M 501.064545 230.798401 C 501.064545 230.798401 496.702545 253.156128 519.047485 266.847168"/>
                    <path id="path19" fill="none" stroke="#d5a127" stroke-width="2.063313" d="M 508.949768 239.772217 C 508.949768 239.772217 513.144043 232.301392 520.274292 230.589966"/>
                    <path id="path20" fill="none" stroke="#d5a127" stroke-width="2.063313" d="M 510.826721 245.158752 C 510.826721 245.158752 515.671082 236.097168 524.080627 233.310669"/>
                    <path id="path21" fill="none" stroke="#d5a127" stroke-width="2.063313" d="M 513.301331 249.908875 C 513.301331 249.908875 518.145691 240.847351 526.565735 238.060852"/>
                    <path id="path22" fill="none" stroke="#d5a127" stroke-width="2.063313" d="M 515.398438 253.276794 C 515.398438 253.276794 521.490601 245.081909 530.204224 243.644775"/>
                    <path id="path23" fill="none" stroke="#d5a127" stroke-width="2.063313" d="M 517.998962 256.480164 C 517.998962 256.480164 525.61145 249.832153 534.429993 250.36969"/>
                    <path id="path24" fill="none" stroke="#d5a127" stroke-width="2.063313" d="M 498.212463 234.243164 C 498.212463 234.243164 493.850403 256.60083 516.195374 270.280945"/>
                </g>
            </g>
            <path id="path25" fill="none" stroke="#d5b027" stroke-width="2.063313" stroke-linecap="round" stroke-linejoin="round" d="M 508.142395 244.796692 C 501.326691 231.687012 502.322845 228.341064 505.898438 232.44397"/>
            <path id="path26" fill="none" stroke="#d5b027" stroke-width="2.063313" stroke-linecap="round" stroke-linejoin="round" d="M 518.187683 253.353577 C 518.187683 253.353577 530.235718 241.286133 532.605469 246.508057 C 533.150696 249.612732 529.271057 249.678528 523.944275 249.294495"/>
            <path id="path27" fill="none" stroke="#d5b027" stroke-width="2.063313" stroke-linecap="round" stroke-linejoin="round" d="M 502.626892 252.783142 C 502.626892 252.783142 502.626892 262.601624 506.988953 265.190674 C 508.320618 265.826965 508.561829 263.797424 506.569519 258.926575"/>
        </g>
        <path id="eN8HYslCIaj117" fill="#1c2435" stroke="none" d="M 670.03717 204.502441 C 670.03717 213.291382 662.912354 220.416199 654.123413 220.416199 C 645.334473 220.416199 638.209595 213.291382 638.209595 204.502441 C 638.209595 195.713501 645.334473 188.588623 654.123413 188.588623 C 662.912354 188.588623 670.03717 195.713501 670.03717 204.502441 Z"/>
        <path id="eN8HYslCIaj118" fill="#182231" stroke="none" d="M 508.247498 259.562927 C 508.247498 268.36499 501.111969 275.500519 492.309845 275.500519 C 483.507751 275.500519 476.372223 268.36499 476.372223 259.562927 C 476.372223 250.760803 483.507751 243.625244 492.309845 243.625244 C 501.111969 243.625244 508.247498 250.760803 508.247498 259.562927 Z"/>
    </g>
    <g id="g18">
        <path id="eN8HYslCIaj120" fill="none" stroke="#45aaf2" stroke-width="2.5" stroke-linecap="round" d="M 657.882813 259.231995 C 657.882813 259.231995 668.10022 253.577332 680.039368 258.854004 C 695.713257 265.599731 696.19458 279.081482 688.564636 292.251465 C 680.934631 305.421509 667.582458 322.574646 627.742493 317.374634 C 588.942444 311.834656 597.742493 296.594666 616.312439 300.744629 C 629.312439 303.654663 648.992493 307.674683 668.622437 329.154663 C 709.162476 365.304626 672.682495 362.064636 646.692444 327.764648 C 628.692444 303.964661 642.052429 286.108154 645.062439 260.69812 C 661.452698 223.164734 656.012085 196.086182 683.382019 158.87085 C 711.903259 118.237915 720.132996 170.203918 709.742981 206.513916 C 695.802979 255.263916 667.590942 260.738892 674.743286 234.513672 C 679.008423 218.874817 693.140259 199.094116 718.914856 178.121216 C 773.614319 125.62439 750.578247 117.138 739.380127 148.258179 C 730.933289 170.344666 723.182739 181.486023 713.152283 194.575439 C 639.622253 277.675415 571.272461 217.534668 579.932495 318.354675 C 589.282471 421.954651 525.00177 432.937622 471.29248 393.574646 C 441.482178 368.208862 401.152466 376.914673 403.922455 386.574646 C 406.692474 396.23468 444.622467 384.264648 458.322479 359.024658 C 466.732452 343.524658 462.876923 325.44342 424.576935 312.623413 C 400.757996 303.475525 379.663757 292.446838 370.950958 269.141296 C 365.37439 254.22467 363.692108 223.862122 383.775055 218.178284"/>
        <path id="eN8HYslCIaj121" fill="none" stroke="#6a7281" stroke-width="2" stroke-linecap="round" d="M 420.106842 152.464355 C 420.106842 152.464355 446.23996 114.039978 422.219971 123.039978 C 403.279968 130.899963 382.986755 144.907227 390.37674 176.537231 C 393.61673 189.927185 396.706696 210.118896 429.718811 199.595703 C 437.88147 197.597168 444.100647 185.332703 424.069977 176.289978 C 404.039276 167.247192 372.069977 138.869934 361.23996 143.489929 C 350.409973 148.109924 371.399963 164.969971 380.639954 171.429932 C 389.879974 177.889954 397.698761 193.976074 390.569977 214.859924 C 386.281982 227.266174 368.839966 259.559937 343.919952 251.859924 C 326.819977 246.549927 303.499969 227.149963 307.649963 214.859924 C 313.199951 203.999939 351.079956 246.499939 358.699951 274.859924 C 366.319977 303.21991 363.619965 341.71991 391.039978 352.239929 C 409.399963 359.239929 438.499969 348.239929 443.929962 318.749939 C 450.050751 286.608337 422.78009 288.594604 416.770111 293.44458"/>
    </g>
    <path id="eN8HYslCIaj122" fill="none" stroke="#e50648" stroke-width="2" stroke-linecap="round" d="M 594.2854 52.669678 C 594.2854 52.669678 603.135376 33.669678 619.105408 30.1297 C 631.415405 27.409729 636.595398 29.1297 628.415405 59.59967 C 626.915405 66.239685 615.765381 76.889709 585.225403 70.829712 C 573.335388 67.769714 580.225403 63.59967 601.625427 59.739685 C 623.025391 55.8797 655.878113 68.328857 650.578064 76.938843 C 646.418091 83.688843 629.799622 59.696106 590.009583 75.736084 C 561.369568 87.286072 532.905396 99.309692 506.195374 78.3797 C 488.465393 61.999695 480.605408 50.139709 486.685394 45.429688 C 492.765411 40.719727 505.304626 48.028198 505.245422 71.1297 C 505.948425 105.003174 467.687744 129.369751 448.007751 133.329712 C 411.687744 140.649719 390.631409 143.140503 364.565399 123.979675 C 341.968536 106.467041 314.375397 116.339722 307.975403 141.86969 C 301.575409 167.399719 321.022736 196.593323 378.675415 206.86969 C 417.953766 212.765564 432.158234 232.417236 440.329346 251.459534 C 444.540771 261.273987 451.783264 273.239227 462.658447 273.044342"/>
    <g id="eN8HYslCIaj123">
        <g id="eN8HYslCIaj124">
            <g id="g19">
                <clipPath id="clipPath4">
                    <path d="M 634.694519 36.64978 C 647.878845 46.810425 650.330078 65.735291 640.169434 78.919617 C 630.008789 92.103943 611.083923 94.555176 597.899597 84.394531 C 584.71521 74.233887 582.264038 55.309021 592.424683 42.124695 C 602.585327 28.940308 621.510193 26.489136 634.694519 36.64978 Z"/>
                </clipPath>
                <g id="g20" clip-path="url(#clipPath4)">
                    <g id="g21">
                        <path id="path28" fill="#e50648" stroke="#c2053d" stroke-width="4.712157" d="M 634.694519 36.64978 C 647.878845 46.810425 650.330078 65.735291 640.169434 78.919617 C 630.008789 92.103943 611.083923 94.555176 597.899597 84.394531 C 584.71521 74.233887 582.264038 55.309021 592.424683 42.124695 C 602.585327 28.940308 621.510193 26.489136 634.694519 36.64978 Z"/>
                        <path id="path29" fill="none" stroke="#b7213e" stroke-width="3.625136" d="M 637.204346 36.04425 C 637.204346 36.04425 612.031982 50.303162 606.565918 92.637207"/>
                        <path id="path30" fill="none" stroke="#b7213e" stroke-width="3.625137" d="M 628.017151 31.445251 C 628.017151 31.445251 604.135254 47.744751 602.177795 90.398254"/>
                        <path id="path31" fill="none" stroke="#b7213e" stroke-width="3.625135" d="M 622.187988 26.520996 C 622.187988 26.520996 596.640869 41.922729 596.97998 85.746643"/>
                        <path id="path32" fill="none" stroke="#b7213e" stroke-width="3.625137" d="M 622.975952 28.07843 C 622.975952 28.07843 589.267029 33.503906 588.181641 82.257324"/>
                        <path id="path33" fill="none" stroke="#b7213e" stroke-width="3.625135" d="M 608.079041 81.555664 C 608.079041 81.555664 627.121094 87.68219 644.274841 77.174866"/>
                        <path id="path34" fill="none" stroke="#b7213e" stroke-width="3.625136" d="M 610.269043 70.788635 C 610.269043 70.788635 627.332214 79.032715 646.079407 73.98114"/>
                        <path id="path35" fill="none" stroke="#b7213e" stroke-width="3.625135" d="M 612.859558 66.241516 C 612.859558 66.241516 630.351685 71.626892 649.116638 65.255005"/>
                        <path id="path36" fill="none" stroke="#b7213e" stroke-width="3.625138" d="M 615.358032 61.822449 C 627.251038 62.834473 639.199707 60.675537 649.986572 55.565613"/>
                        <path id="path37" fill="none" stroke="#b7213e" stroke-width="3.625136" d="M 619.460815 53.891113 C 631.361206 54.806091 643.291748 52.552673 654.038574 47.360046"/>
                        <path id="path38" fill="none" stroke="#b7213e" stroke-width="3.625136" d="M 624.909058 46.381775 C 636.80011 47.291687 648.247986 45.046021 658.986328 39.858337"/>
                    </g>
                </g>
                <path id="eN8HYslCIaj141" fill="none" stroke="#cf2a4a" stroke-width="1.812568" stroke-linecap="round" d="M 624.257813 64.776184 C 633.107178 64.361511 649.156799 72.409851 650.872009 66.811829 C 651.314941 61.666199 644.614258 64.776184 634.709351 64.125916"/>
                <path id="eN8HYslCIaj142" fill="none" stroke="#cf2a4a" stroke-width="1.812568" stroke-linecap="round" d="M 604.108032 61.650269 C 604.108032 61.650269 601.167664 65.900635 597.576965 70.2547 C 593.439697 75.145874 586.691895 77.002441 587.01239 82.119873 C 587.332764 87.237244 595.720398 87.44458 598.557129 80.59314 C 600.132568 76.964233 601.298889 73.171082 602.034729 69.283936"/>
                <path id="eN8HYslCIaj143" fill="none" stroke="#cf2a4a" stroke-width="1.812568" stroke-linecap="round" d="M 591.131348 53.137146 C 591.131348 53.137146 593.85498 47.256348 599.189087 35.07074 C 604.315918 23.346924 608.88678 23.959534 609.744324 27.013 C 611.487793 33.214172 598.105347 34.854004 593.421448 47.15271"/>
            </g>
        </g>
        <g id="eN8HYslCIaj144">
            <clipPath id="clipPath5">
                <path d="M 428.546997 130.517029 C 445.895233 143.886597 449.120544 168.78833 435.750977 186.136536 C 422.381378 203.484802 397.479675 206.710083 380.13147 193.340515 C 362.783234 179.970947 359.557892 155.069214 372.92749 137.721008 C 386.297058 120.372803 411.198761 117.147461 428.546997 130.517029 Z"/>
            </clipPath>
            <g id="g22" clip-path="url(#clipPath5)">
                <g id="g23">
                    <path id="path39" fill="#6a7281" stroke="#35a7ac" stroke-width="6.200353" d="M 428.546997 130.517029 C 445.895233 143.886597 449.120544 168.78833 435.750977 186.136536 C 422.381378 203.484802 397.479675 206.710083 380.13147 193.340515 C 362.783234 179.970947 359.557892 155.069214 372.92749 137.721008 C 386.297058 120.372803 411.198761 117.147461 428.546997 130.517029 Z"/>
                    <path id="path40" fill="none" stroke="#35a7ac" stroke-width="3.72021" d="M 431.849487 129.720276 C 431.849487 129.720276 397.431641 147.714661 391.53479 204.186462"/>
                    <path id="path41" fill="none" stroke="#35a7ac" stroke-width="3.72021" d="M 417.924164 125.215149 C 417.924164 125.215149 382.900055 143.084961 377.597076 199.693787"/>
                    <path id="path42" fill="none" stroke="#35a7ac" stroke-width="3.720211" d="M 423.551636 125.025574 C 423.551636 125.025574 389.71579 145.054443 387.969513 201.884216"/>
                    <path id="path43" fill="none" stroke="#35a7ac" stroke-width="3.720209" d="M 411.484589 118.297974 C 411.484589 118.297974 376.672546 136.431458 373.527313 194.01178"/>
                    <path id="path44" fill="none" stroke="#35a7ac" stroke-width="3.72021" d="M 410.498657 117.675537 C 410.498657 117.675537 366.773773 127.99292 369.973175 192.079712"/>
                    <path id="path45" fill="none" stroke="#35a7ac" stroke-width="3.72021" d="M 393.621307 191.517212 C 393.621307 191.517212 418.968353 198.610474 440.992004 183.927979"/>
                    <path id="path46" fill="none" stroke="#35a7ac" stroke-width="3.72021" d="M 393.907867 187.284424 C 393.907867 187.284424 419.715179 192.45813 440.576599 176.166504"/>
                    <path id="path47" fill="none" stroke="#35a7ac" stroke-width="3.72021" d="M 396.361908 177.571838 C 396.361908 177.571838 420.630066 183.301025 443.273682 171.470703"/>
                    <path id="path48" fill="none" stroke="#35a7ac" stroke-width="3.72021" d="M 400.051086 168.967468 C 400.051086 168.967468 423.513245 174.398987 447.545807 164.280029"/>
                    <path id="path49" fill="none" stroke="#35a7ac" stroke-width="3.720211" d="M 403.469513 164.505737 C 419.163269 165.116333 434.738312 161.555603 448.607697 154.186401"/>
                    <path id="path50" fill="none" stroke="#35a7ac" stroke-width="3.72021" d="M 408.502167 155.203552 C 424.16098 156.407532 439.859406 153.442383 454.000336 146.609802"/>
                    <path id="path51" fill="none" stroke="#35a7ac" stroke-width="3.72021" d="M 415.049744 145.332581 C 430.696259 146.529846 446.38089 143.564941 460.510681 136.738892"/>
                </g>
            </g>
            <path id="eN8HYslCIaj162" fill="none" stroke="#6a7281" stroke-width="2.385014" stroke-linecap="round" d="M 414.814148 167.526367 C 426.458344 166.980713 447.576782 177.570862 449.83371 170.204834 C 450.416504 163.434143 441.599609 167.526367 428.566467 166.670715"/>
            <path id="eN8HYslCIaj163" fill="none" stroke="#6a7281" stroke-width="2.385014" stroke-linecap="round" d="M 390.466095 162.801697 C 390.466095 162.801697 386.597076 168.394409 381.872406 174.123535 C 376.428497 180.559509 367.549622 183.00238 367.971283 189.735962 C 368.392853 196.469543 379.429504 196.742371 383.16214 187.727051 C 385.235077 182.952087 386.769806 177.960999 387.737976 172.846191"/>
            <path id="eN8HYslCIaj164" fill="none" stroke="#6a7281" stroke-width="2.385014" stroke-linecap="round" d="M 371.225647 152.211426 C 371.225647 152.211426 374.809479 144.473389 381.828247 128.439331 C 388.574219 113.012817 394.588593 113.818909 395.717041 117.836731 C 398.011139 125.996399 380.402191 128.154114 374.239014 144.337036"/>
        </g>
        <g id="eN8HYslCIaj165">
            <clipPath id="clipPath6">
                <path d="M 682.514465 267.723816 C 702.201111 282.895538 705.861206 311.15387 690.689514 330.840546 C 675.517761 350.527222 647.259399 354.187317 627.572754 339.015564 C 607.886047 323.843842 604.226013 295.58551 619.397705 275.898834 C 634.569458 256.212158 662.827759 252.552063 682.514465 267.723816 Z"/>
            </clipPath>
            <g id="g24" clip-path="url(#clipPath6)">
                <g id="g25">
                    <path id="path52" fill="#45aaf2" stroke="#1984d0" stroke-width="7.036129" d="M 682.514465 267.723816 C 702.201111 282.895538 705.861206 311.15387 690.689514 330.840546 C 675.517761 350.527222 647.259399 354.187317 627.572754 339.015564 C 607.886047 323.843842 604.226013 295.58551 619.397705 275.898834 C 634.569458 256.212158 662.827759 252.552063 682.514465 267.723816 Z"/>
                    <path id="path53" fill="none" stroke="#1984d0" stroke-width="4.221675" d="M 686.262085 266.819641 C 686.262085 266.819641 647.204895 287.239594 640.513184 351.323486"/>
                    <path id="path54" fill="none" stroke="#1984d0" stroke-width="4.221676" d="M 669.107971 258.744324 C 669.107971 258.744324 631.534668 282.809814 631.823303 347.329773"/>
                    <path id="path55" fill="none" stroke="#1984d0" stroke-width="4.221675" d="M 681.711609 260.816223 C 681.711609 260.816223 669.390869 266.482239 656.888245 282.28064 C 655.197815 284.416626 653.504089 286.737915 651.836975 289.255402 C 649.8125 292.312714 647.827271 295.659485 645.935181 299.315491 C 640.006409 310.771332 634.991455 325.263397 632.543762 343.399811"/>
                    <path id="path56" fill="none" stroke="#1984d0" stroke-width="4.221675" d="M 666.043457 253.629517 C 666.043457 253.629517 625.909363 272.950684 620.280457 338.147461"/>
                    <path id="path57" fill="none" stroke="#1984d0" stroke-width="4.221675" d="M 662.033264 253.151306 C 662.033264 253.151306 612.41449 264.859436 616.045166 337.584808"/>
                    <path id="path58" fill="none" stroke="#1984d0" stroke-width="4.221675" d="M 642.880981 335.811707 C 642.880981 335.811707 671.644653 343.861084 696.636963 327.199493"/>
                    <path id="path59" fill="none" stroke="#1984d0" stroke-width="4.221675" d="M 645.061951 327.312805 C 645.061951 327.312805 672.601379 333.81427 698.29718 320.389282"/>
                    <path id="path60" fill="none" stroke="#1984d0" stroke-width="4.221674" d="M 648.420105 320.151031 C 648.420105 320.151031 675.517029 323.704041 701.54718 309.63089"/>
                    <path id="path61" fill="none" stroke="#1984d0" stroke-width="4.221676" d="M 649.940552 309.81958 C 649.940552 309.81958 675.689819 318.976227 704.092407 310.674927"/>
                    <path id="path62" fill="none" stroke="#1984d0" stroke-width="4.221676" d="M 653.603821 305.067413 C 671.347229 306.746002 689.218445 303.690796 705.396545 296.213135"/>
                    <path id="path63" fill="none" stroke="#1984d0" stroke-width="4.221676" d="M 656.815186 298.421356 C 674.619324 297.623383 691.894531 292.123749 706.883301 282.482025"/>
                    <path id="path64" fill="none" stroke="#1984d0" stroke-width="4.221673" d="M 661.553833 291.233856 C 679.332153 290.215698 696.524353 284.51059 711.384277 274.697906"/>
                    <path id="path65" fill="none" stroke="#1984d0" stroke-width="4.221673" d="M 668.986023 281.014618 C 686.764343 279.99646 703.956543 274.291351 718.816406 264.478699"/>
                </g>
            </g>
            <path id="eN8HYslCIaj184" fill="none" stroke="#45aaf2" stroke-width="2.81445" stroke-linecap="round" d="M 666.930481 309.721771 C 680.144287 309.1026 704.109314 321.12027 706.670532 312.761353 C 707.331848 305.077972 697.326538 309.721771 682.53656 308.750793"/>
            <path id="eN8HYslCIaj185" fill="none" stroke="#45aaf2" stroke-width="2.81445" stroke-linecap="round" d="M 632.903198 301.573181 C 632.903198 301.573181 628.512695 307.9198 623.151123 314.421173 C 616.973389 321.72467 606.897705 324.496857 607.376221 332.138092 C 607.854614 339.779297 620.378967 340.088928 624.614746 329.858368 C 626.967102 324.439728 628.708679 318.775879 629.807373 312.97168"/>
            <path id="eN8HYslCIaj186" fill="none" stroke="#45aaf2" stroke-width="2.81445" stroke-linecap="round" d="M 617.466492 292.342499 C 617.466492 292.342499 621.533386 283.561432 629.49823 265.366028 C 637.153564 247.860168 643.978638 248.774902 645.259155 253.33429 C 647.862488 262.593811 627.880005 265.042419 620.886047 283.406647"/>
        </g>
    </g>
    <g id="g26">
        <path id="path66" fill="none" stroke="#305c9d" stroke-width="3" d="M 278.234375 255.421875 L 281.71875 256.8125 L 284.953125 258.71875 L 287.703125 260.984375 L 290.84375 264.6875 L 292.6875 267.921875 L 294.078125 271.46875 L 294.953125 275.21875 L 295.328125 280.265625 L 294.96875 285.171875 L 294.0625 289.078125 L 292.078125 293.8125 L 289.375 297.765625 L 285.84375 301.15625 L 281.734375 303.75 L 278.3125 305.109375 L 271.78125 306.328125 L 247.984375 306.40625 L 247.890625 349.140625 L 246.859375 355.15625 L 244.703125 360.765625 L 242.484375 364.5625 L 239.734375 368.046875 L 236.421875 371.171875 L 232.90625 373.65625 L 228.765625 375.75 L 224.546875 377.109375 L 219.8125 377.859375 L 215.109375 377.859375 L 207.625 376.28125 L 203.546875 374.484375 L 199.9375 372.21875 L 196.484375 369.234375 L 193.703125 366.03125 L 189.953125 359.5625 L 188.09375 353.84375 L 187.421875 349.25 L 187.328125 306.4375 L 85.765625 306.4375 L 76.75 305.265625 L 71.671875 303.65625 L 65.546875 300.59375 L 60.265625 296.5625 L 56.984375 293.03125 L 54.125 288.78125 L 52.09375 284.390625 L 50.765625 279.609375 L 50.171875 273.34375 L 51.046875 265.390625 L 53.34375 258.078125 L 129.71875 69.640625 L 131.703125 65.5625 L 134.984375 60.984375 L 139.015625 57.15625 L 144.703125 53.671875 L 149.859375 51.828125 L 155.5 50.96875 L 161.203125 51.171875 L 167.203125 52.53125 L 172.5625 54.921875 L 176.15625 57.34375 L 180.25 61.234375 L 183.515625 65.84375 L 185.3125 69.59375 L 186.84375 74.953125 L 187.28125 79.25 L 186.875 84.953125 L 186.15625 88.625 L 184.3125 94.4375 L 120.46875 254.15625 L 187.328125 254.15625 L 187.34375 180.453125 L 187.828125 175.640625 L 189.4375 169.875 L 191.34375 165.796875 L 194.78125 160.84375 L 198.90625 156.78125 L 203.8125 153.5 L 209.265625 151.265625 L 213.625 150.328125 L 218.1875 150.078125 L 224.28125 150.890625 L 231.390625 153.625 L 235.109375 155.984375 L 238.515625 158.890625 L 241.4375 162.21875 L 243.921875 165.96875 L 245.84375 170 L 247.21875 174.375 L 247.96875 180.390625 L 247.984375 254.15625 L 270.3125 254.15625 L 274.59375 254.546875 Z"/>
        <path id="path67" fill="none" stroke="#305c9d" stroke-width="3" d="M 982.34375 255.421875 L 985.828125 256.8125 L 989.0625 258.71875 L 991.8125 260.984375 L 994.9375 264.6875 L 996.796875 267.921875 L 998.1875 271.46875 L 999.0625 275.21875 L 999.4375 280.25 L 999.0625 285.203125 L 998.171875 289.0625 L 996.1875 293.8125 L 993.484375 297.765625 L 989.953125 301.15625 L 985.859375 303.71875 L 982.390625 305.109375 L 975.890625 306.328125 L 952.09375 306.40625 L 952 349.125 L 950.9375 355.171875 L 948.8125 360.765625 L 946.59375 364.5625 L 943.84375 368.046875 L 940.53125 371.171875 L 937.015625 373.65625 L 932.875 375.75 L 928.640625 377.09375 L 923.90625 377.859375 L 919.21875 377.859375 L 911.734375 376.28125 L 907.65625 374.484375 L 904.046875 372.21875 L 900.59375 369.234375 L 897.8125 366.03125 L 894.03125 359.546875 L 892.203125 353.875 L 891.53125 349.25 L 891.4375 306.4375 L 789.875 306.4375 L 780.859375 305.265625 L 775.78125 303.65625 L 769.640625 300.59375 L 764.359375 296.5625 L 761.109375 293.03125 L 758.234375 288.78125 L 756.203125 284.390625 L 754.875 279.609375 L 754.28125 273.34375 L 755.15625 265.390625 L 757.453125 258.078125 L 833.828125 69.640625 L 835.8125 65.5625 L 839.078125 60.984375 L 843.109375 57.15625 L 848.8125 53.671875 L 853.96875 51.828125 L 859.609375 50.96875 L 865.3125 51.171875 L 871.3125 52.53125 L 876.671875 54.921875 L 880.25 57.34375 L 884.359375 61.234375 L 887.625 65.84375 L 889.421875 69.59375 L 890.96875 75.046875 L 891.40625 79.203125 L 890.984375 84.953125 L 890.25 88.734375 L 888.453125 94.328125 L 824.578125 254.15625 L 891.4375 254.15625 L 891.453125 180.453125 L 891.9375 175.640625 L 893.546875 169.875 L 895.453125 165.796875 L 898.890625 160.84375 L 903.015625 156.78125 L 907.921875 153.5 L 913.375 151.265625 L 917.734375 150.328125 L 922.296875 150.078125 L 928.390625 150.890625 L 935.5 153.625 L 939.21875 155.984375 L 942.5625 158.84375 L 945.59375 162.28125 L 947.984375 165.90625 L 949.984375 170.078125 L 951.296875 174.359375 L 952.078125 180.390625 L 952.09375 254.15625 L 974.40625 254.15625 L 978.6875 254.546875 Z"/>
    </g>
</svg>
