<?xml version="1.0" encoding="UTF-8"?>
<!-- Generated by Pixelmator Pro 3.6 -->
<svg width="400" height="400" viewBox="0 0 400 400" xmlns="http://www.w3.org/2000/svg">
    <g id="arrowleftarrowrightsquarefill">
        <path id="Path" fill="#305c9d" stroke="none"
            d="M 49.941143 347.441925 L 243.813354 347.441925 C 277.377869 347.441925 294 330.819855 294 297.895172 L 294 102.743958 C 294 69.819214 277.377869 53.196991 243.813354 53.196991 L 49.941143 53.196991 C 16.536932 53.196991 -0.245098 69.659363 -0.245098 102.743958 L -0.245098 297.895172 C -0.245098 330.979614 16.536932 347.441925 49.941143 347.441925 Z" />
        <path id="path1" fill="#ffffff" stroke="none"
            d="M 69.759933 142.860992 L 111.155273 102.743927 C 113.23304 100.506348 116.270187 99.227722 118.987022 99.227722 C 125.060547 99.227722 129.535614 103.543121 129.535614 109.776367 C 129.535614 112.65332 128.417236 115.370392 126.339478 117.448212 L 109.077515 134.390167 L 102.364914 140.303925 L 110.036896 140.144165 L 216.64267 140.144165 C 222.875977 140.144165 227.351028 144.619186 227.351028 150.852493 C 227.351028 156.926025 222.716187 161.720627 216.64267 161.720627 L 109.877129 161.720627 L 102.205154 161.241318 L 109.077515 167.634354 L 126.339478 184.416245 C 128.417236 186.494019 129.535614 189.051865 129.535614 192.088242 C 129.535614 198.161743 125.060547 202.477036 118.987022 202.477036 C 116.270187 202.477036 113.393585 201.198135 111.155273 199.440674 L 69.759933 158.843994 C 65.444557 154.688492 65.444557 147.176254 69.759933 142.860992 Z M 223.835358 257.458282 L 182.598846 298.054932 C 180.361313 300.13269 177.324951 301.410858 174.767883 301.410858 C 168.854126 301.410858 164.218521 296.935791 164.218521 290.862274 C 164.218521 287.825897 165.497437 285.428589 167.575195 283.19104 L 184.83638 266.248627 L 191.709518 260.3349 L 183.718002 260.494659 L 77.112068 260.494659 C 71.038544 260.494659 66.563408 255.859818 66.563408 249.626526 C 66.563408 243.393234 71.198395 238.918167 77.112068 238.918167 L 183.877762 238.918167 L 191.709518 239.397476 L 184.83638 233.00444 L 167.255676 216.222549 C 165.337677 214.144791 164.218521 211.587723 164.218521 208.550568 C 164.218521 202.477036 168.533813 198.161743 174.767883 198.161743 C 177.64447 198.161743 180.680847 199.440674 182.598846 201.358673 L 223.835358 241.954559 C 228.15065 246.27063 228.4702 252.983215 223.835358 257.458282 Z" />
    </g>
</svg>