<?xml version="1.0" encoding="UTF-8"?>
<!-- Generated by Pixelmator Pro 3.6 -->
<svg width="400" height="400" viewBox="0 0 400 400" xmlns="http://www.w3.org/2000/svg">
    <g id="customsterlingsignsquarefillbadgeplus">
        <path id="Path" fill="#305c9d" stroke="none"
            d="M 50.018833 310.592316 L 243.40715 310.592316 C 276.818909 310.592316 293.426453 293.915588 293.426453 261.079926 L 293.426453 66.508789 C 293.426453 33.673126 276.818909 16.996613 243.40715 16.996613 L 50.018833 16.996613 C 16.776243 16.996613 0 33.603943 0 66.508789 L 0 261.079926 C 0 293.984802 16.776243 310.592316 50.018833 310.592316 Z" />
        <path id="path1" fill="#ffffff" stroke="none"
            d="M 94.817886 238.061386 C 89.031181 238.061386 85.20681 234.202026 85.20681 228.246628 C 85.20681 222.728134 87.679939 219.514084 93.735657 217.620941 C 106.027451 214.231949 116.56916 202.759583 116.56916 185.272751 C 116.56916 180.041931 115.617546 174.442596 114.29351 168.877472 L 94.7658 168.877472 C 89.45179 168.877472 85.627419 165.221802 85.627419 159.942017 C 85.627419 154.628006 89.45179 151.141052 94.7658 151.141052 L 110.027534 151.141052 C 108.261902 144.727692 107.241859 138.279358 107.241859 131.694214 C 107.241859 100.692596 128.004974 80.96817 161.83345 80.96817 C 172.084396 80.96817 181.101486 82.264221 188.853653 85.108978 C 195.120056 87.616333 197.216904 91.068268 197.216904 95.534058 C 197.216904 100.779663 194.509735 104.097107 188.315628 104.097107 C 183.643036 104.097107 177.136398 100.494324 163.015991 100.494324 C 141.5065 100.494324 128.830643 112.503906 128.830643 130.376373 C 128.830643 138.279358 130.223877 144.862198 131.650528 151.141052 L 176.92337 151.141052 C 182.237381 151.141052 186.061752 154.628006 186.061752 159.942017 C 186.061752 165.221802 182.237381 168.877472 176.92337 168.877472 L 136.085205 168.877472 C 137.071823 173.563278 137.651031 178.655701 137.651031 184.427643 C 137.651031 198.359116 132.050919 211.448624 123.437332 218.63475 L 194.892242 218.63475 C 200.544464 218.63475 204.841537 222.4599 204.841537 228.280823 C 204.841537 234.236252 200.544464 238.061386 194.892242 238.061386 Z" />
        <path id="path2" fill="#ffffff" stroke="none"
            d="M 296.640503 384.00647 C 352.563141 384.00647 399.367584 337.270447 399.367584 281.279388 C 399.367584 224.950928 352.933228 178.55307 296.640503 178.55307 C 240.176758 178.55307 193.87999 224.985123 193.87999 281.279388 C 193.87999 337.778107 240.176758 384.00647 296.640503 384.00647 Z" />
        <path id="path3" fill="#305c9d" stroke="none"
            d="M 296.640503 362.200775 C 340.47583 362.200775 377.561127 325.521301 377.561127 281.279388 C 377.561127 236.868759 341.015381 200.357986 296.640503 200.357986 C 252.264084 200.357986 215.515427 236.903732 215.515427 281.279388 C 215.515427 325.859497 252.264084 362.200775 296.640503 362.200775 Z" />
        <path id="path4" fill="#ffffff" stroke="none"
            d="M 296.640503 332.069946 C 290.578583 332.069946 286.819519 328.072968 286.819519 322.248138 L 286.819519 291.066956 L 255.637527 291.066956 C 249.881912 291.066956 245.850739 287.173401 245.850739 281.279388 C 245.850739 275.386139 249.881912 271.458374 255.637527 271.458374 L 286.819519 271.458374 L 286.819519 240.345581 C 286.819519 234.555023 290.578583 230.523834 296.640503 230.523834 C 302.499512 230.523834 306.427307 234.555023 306.427307 240.345581 L 306.427307 271.458374 L 337.573517 271.458374 C 343.364868 271.458374 347.19162 275.386139 347.19162 281.279388 C 347.19162 287.173401 343.364868 291.066956 337.573517 291.066956 L 306.427307 291.066956 L 306.427307 322.248138 C 306.427307 328.072968 302.499512 332.069946 296.640503 332.069946 Z" />
    </g>
</svg>