<?xml version="1.0" encoding="UTF-8"?>
<!-- Generated by Pixelmator Pro 3.6 -->
<svg width="400" height="400" viewBox="0 0 400 400" xmlns="http://www.w3.org/2000/svg">
    <g id="Group">
        <path id="Path" fill="#305c9d" stroke="none"
            d="M 103.144432 347 L 296.855133 347 C 330.391724 347 347 330.391754 347 297.494476 L 347 102.505707 C 347 69.608368 330.391724 53 296.855133 53 L 103.144432 53 C 69.768051 53 53 69.448669 53 102.505707 L 53 297.494476 C 53 330.551392 69.768051 347 103.144432 347 Z" />
        <path id="path1" fill="#ffffff" stroke="none"
            d="M 150.345718 278.372681 C 144.634384 278.372681 140.667709 274.565369 140.667709 268.694641 C 140.667709 263.141144 143.364761 259.967468 149.235489 258.063446 C 161.452744 254.573364 172.083145 243.149139 172.083145 225.85498 C 172.083145 220.618683 171.131516 215.06517 169.703293 209.512451 L 150.345718 209.512451 C 145.110199 209.512451 141.302124 206.021591 141.302124 200.626694 C 141.302124 195.391159 145.110199 191.900299 150.345718 191.900299 L 165.419403 191.900299 C 163.832596 185.553772 162.722351 179.048615 162.722351 172.542725 C 162.722351 141.603088 183.34877 122.08728 216.985458 122.08728 C 227.298676 122.08728 236.343048 123.356598 243.959183 126.212585 C 250.147125 128.59256 252.209763 132.083221 252.209763 136.526184 C 252.209763 141.761688 249.511932 145.093964 243.32399 145.093964 C 238.8815 145.093964 232.217758 141.444489 218.255081 141.444489 C 196.834854 141.444489 184.141785 153.503113 184.141785 171.115265 C 184.141785 179.048615 185.570023 185.712372 186.998245 191.900299 L 232.059158 191.900299 C 237.294662 191.900299 241.261353 195.391159 241.261353 200.626694 C 241.261353 206.021591 237.294662 209.512451 232.059158 209.512451 L 191.282135 209.512451 C 192.392365 214.272156 193.027557 219.34906 193.027557 225.061172 C 193.027557 238.86525 187.315445 252.034119 178.906281 259.174469 L 249.98851 259.174469 C 255.699844 259.174469 259.825134 262.982544 259.825134 268.694641 C 259.825134 274.723969 255.699844 278.372681 249.98851 278.372681 L 150.345718 278.372681 Z" />
    </g>
</svg>